<?xml version="1.0" encoding="utf-8"?>
<!-- Generator: Adobe Illustrator 22.0.1, SVG Export Plug-In . SVG Version: 6.00 Build 0)  -->
<svg version="1.1" id="Layer_1" xmlns="http://www.w3.org/2000/svg" xmlns:xlink="http://www.w3.org/1999/xlink" x="0px" y="0px"
	 viewBox="0 0 180.1 165.6" style="enable-background:new 0 0 180.1 165.6;" xml:space="preserve">
<style type="text/css">
	.st0{fill:#F2F2F2;}
	.st1{fill:#F03E3E;}
	.st2{fill:none;stroke:#FFFFFF;stroke-width:1.7486;stroke-linecap:round;stroke-linejoin:round;stroke-miterlimit:10;}
	.st3{fill:#FFFFFF;}
	.st4{fill:none;stroke:#F03E3E;stroke-width:1.7486;stroke-linecap:round;stroke-linejoin:round;stroke-miterlimit:10;}
	.st5{fill:#020101;}
	.st6{fill:#B3B3B3;}
	.st7{fill:#FFCF3F;}
	.st8{fill:#3C3C39;}
	.st9{fill:#E2A534;}
	.st10{fill:#E6E6E6;}
	.st11{fill:none;stroke:#F03E3E;stroke-width:4.2828;stroke-linecap:round;stroke-linejoin:round;stroke-miterlimit:10;}
</style>
<g>
	<g>
		<path class="st1" d="M76.2,134.6l1.9,1.9c-1.4,1.4-3.4,2.3-5.7,2.3c-4.4,0-8-3.6-8-8c0-4.4,3.6-8,8-8c2.2,0,4.2,0.9,5.7,2.4
			l-1.9,1.9c-1-1-2.3-1.6-3.8-1.6c-3,0-5.4,2.4-5.4,5.4c0,3,2.4,5.4,5.4,5.4C73.9,136.1,75.2,135.5,76.2,134.6z"/>
		<path class="st1" d="M84,125.4v4h6.7v2.7H84v4h8v2.7H81.3v-16.1h10.7v2.7H84z"/>
		<path class="st1" d="M108.7,138.8H106l-8-11.5v11.5h-2.7v-16.1H98l8,11.5v-11.5h2.7V138.8z"/>
		<path class="st1" d="M120,125.4h-2.7v13.4h-2.7v-13.4H112v-2.7h8V125.4z"/>
		<path class="st1" d="M136.1,138.8h-2.9l-0.5-1.3h-6l-0.5,1.3h-2.9l6.4-16.1L136.1,138.8z M131.6,134.8l-1.9-4.8l-1.9,4.8H131.6z"
			/>
		<path class="st1" d="M152.8,122.7v9.4c0,0.2,0,1.7-0.8,3.3c-1.1,2.2-3.2,3.4-5.9,3.4s-4.8-1.2-5.9-3.4c-0.8-1.6-0.8-3.1-0.8-3.3
			v-9.4H152.8z M150.1,132.1v-6.7h-8v6.7c0,0,0,1.1,0.6,2.1c0.7,1.3,1.8,1.9,3.4,1.9c1.7,0,2.8-0.6,3.4-1.9
			C150.1,133.2,150.1,132.1,150.1,132.1z"/>
		<path class="st1" d="M164.4,138.8l-4.2-6.7h-1.5v6.7H156v-9.4h2.6l-2.6-4v-2.7h5.4c0,0,5.4,0,5.4,4.7c0,2.9-2,4-3.5,4.4l4.4,7
			H164.4z M161.7,129.4c0.7-0.1,2.3-0.4,2.3-2c0-2-2.7-2-2.7-2h-2.2L161.7,129.4z"/>
		<path class="st1" d="M170.1,134.1h2.7c0,1.3,1.1,2,2.3,2c1.2,0,2.3-0.7,2.3-2c0-1.4-1.3-2-2.3-2c-0.1,0-1.2,0-2.4-0.5
			c-1.7-0.8-2.6-2.3-2.6-4.2c0-2.9,2.4-4.7,5-4.7c2.8,0,5,2,5,4.7h-2.7c0-1.3-1.1-2-2.3-2c-1.3,0-2.3,0.7-2.3,2c0,1.3,1.1,2,2.3,2
			c0.1,0,1.2,0,2.4,0.5c1.7,0.8,2.6,2.3,2.6,4.2c0,2.9-2.4,4.7-5,4.7C172.3,138.7,170.1,136.9,170.1,134.1z"/>
		<path class="st1" d="M81.8,159.8h-2.7v-9.9l-4.6,9.9H72l-4.9-10.1v10.1h-2.7v-16.1h2.7l6.1,12.5l5.9-12.5h2.7V159.8z"/>
		<path class="st1" d="M85.1,149.7c0-3.3,2.7-6,6-6c3.3,0,6,2.7,6,6c0,3.3-2.7,6-6,6C87.8,155.7,85.1,153,85.1,149.7z M96.3,159.8
			H85.7v-2.7h10.6V159.8z M87.7,149.7c0,1.8,1.5,3.3,3.3,3.3c1.8,0,3.3-1.5,3.3-3.3c0-1.8-1.5-3.3-3.3-3.3
			C89.2,146.4,87.7,147.9,87.7,149.7z"/>
		<path class="st1" d="M111.7,143.7l-6.4,16.1l-6.4-16.1H111.7z M105.3,152.6l2.5-6.2h-4.9L105.3,152.6z"/>
		<path class="st1" d="M119,146.4v10.7h1.3v2.7H115v-2.7h1.3v-10.7H115v-2.7h5.4v2.7H119z"/>
		<path class="st1" d="M126.3,146.4v4h6.7v2.7h-6.7v4h8v2.7h-10.7v-16.1h10.7v2.7H126.3z"/>
		<path class="st1" d="M137.5,155.1h2.7c0,1.3,1.2,2,2.3,2c1.2,0,2.3-0.7,2.3-2c0-1.4-1.3-2-2.3-2c-0.1,0-1.2,0-2.4-0.5
			c-1.7-0.8-2.6-2.3-2.6-4.2c0-2.9,2.4-4.7,5-4.7c2.8,0,5,2,5,4.7h-2.7c0-1.3-1.1-2-2.3-2c-1.3,0-2.3,0.7-2.3,2c0,1.3,1.2,2,2.3,2
			c0.1,0,1.2,0,2.4,0.5c1.7,0.8,2.6,2.3,2.6,4.2c0,2.9-2.4,4.7-5,4.7C139.8,159.7,137.6,157.9,137.5,155.1z"/>
	</g>
	<path class="st1" d="M116.6,25.6c0.1-0.7,0.4-1.4,0.8-2c-0.5,0.2-0.9,0.3-1,0.9C116.3,24.9,116.4,25.3,116.6,25.6
		C116.6,25.5,116.5,25.5,116.6,25.6z M35.8,158.7c1,0.6,2.2,0.7,3.3,0.8c1.3,0.1,2.6,0,3.9-0.1c0.8-0.1,2.1-0.1,1.8-1.3
		c-0.3-0.8-0.9-1.6-1.4-2.3c-0.2-0.3-0.4-0.5-0.6-0.8c-0.3,0.1-0.6,0.2-0.9,0.3c-0.6,0.2-1.2,0.3-1.9,0.5c-1.2,0.2-2.4,0.2-3.6-0.2
		c-0.1,0-0.6-0.2-0.5-0.3c0.3,0.1,0.6,0.1,1,0.1c0.6,0,1.2,0,1.7-0.2c1.2-0.3,2.2-0.8,3.3-1.3c-1.1-1.4-2.3-2.8-3.2-4.4
		c-0.5-0.7-0.9-1.5-1.2-2.3c-0.4-0.8-0.7-1.6-1.1-2.3c-0.4-0.7-0.9-1.4-1.1-2.1c-0.3-0.8-0.3-1.8-0.4-2.7c-0.2-1.7-0.5-3.5-0.1-5.1
		c-0.5,0.3-1.1,0.7-1.6,1c-0.3,0.2-0.7,0.4-1,0.6c-0.3,0.2-0.6,0.3-0.8,0.5c-0.5,0.4-0.9,0.9-1.3,1.4c-0.3,0.4-0.3,0.5-0.1,0.9
		c0.1,0.3,0.3,0.6,0.4,0.9c0.2,0.6,0.4,1.1,0.5,1.7c0.1,0.6,0.1,1.3,0,2c-0.1,0.5-0.3,1-0.3,1.5c0,1.1,0.6,2.1,1.2,2.9
		c0.4,0.5,0.8,0.9,1.3,1.3c0.2,0.2,0.4,0.4,0.7,0.5c0.1,0.1,0.2,0.2,0.3,0.2c0,0.2,0,0.3,0,0.5c0,0.7,0.1,1.3,0,2
		c-0.1,0.7-0.2,1.3-0.3,2c-0.1,1,0.1,2.3,0.9,3C35,158,35.4,158.3,35.8,158.7C35.9,158.7,35.8,158.7,35.8,158.7z M5.3,124.2
		c-0.7,5-1,10.9-5.3,14.3c1.8,0.2,3.1-1.2,4.2-2.4c1.2-1.4,2.3-3,3.1-4.7c0.9-1.8,1.6-3.7,2-5.6c0.4-1.9,0.5-3.8,0.5-5.7
		c0.9,2.5,0.9,5.2,0.6,7.9c1.1-1.6,3.1-2.7,3.8-4.6c0.2-0.5,0.3-1.1,0.4-1.7c0.2-0.7,0.3-1.3,0.3-2c0.1-1.4-0.1-2.7,0.3-4.1
		c0.9,1.1,0.7,2.8,1.8,3.8c1.6-4.6,1.1-9.6,0.9-14.3c-0.1-2.2,0.1-4.3,1-6.3c0.8-1.9,2.1-3.7,3.5-5.2c0.1,2,0.3,4.1,0.7,6.1
		c0.5,2,1.3,3.9,2.3,5.6c0.5,0.9,1,1.8,1.5,2.7c0.4,0.9,0.8,1.8,1.2,2.7c0.6,1.4,1.2,2.8,1.6,4.3c0.5,1.8,0.8,3.8,0.4,5.7
		c-0.4,2-1.7,3.5-3.4,4.6c-1.1,0.7-2.1,1.6-3.1,2.4c-0.4,0.3-0.6,0.3-0.8,0.8c-0.2,0.5-0.1,1.2-0.1,1.8c0,0.7,0.1,1.4,0,2.1
		c-0.1,0.7-0.1,5-0.1,6.4c0,3-0.2,11.9-0.2,13.4c0,0.7-0.1,1.2,0.3,1.8c0.3,0.5,0.7,0.9,1,1.4c0.4,0.6,0.9,1,1.3,1.5
		c0.2,0.3,0.2,0.4,0.1,0.7c-0.1,0.3-0.1,0.6-0.2,0.9c-0.2,1.3-0.3,2.6,0.1,3.9c0.2,0.6,0.3,1.1,0.6,1.6c0.3,0.4,0.7,0.7,1.1,1
		c0.6,0.3,1.3,0.4,1.9,0.5c0.6,0.1,1.2,0.2,1.9,0.2c1.3,0.1,2.6,0.1,3.8-0.2c0.3-0.1,0.7-0.2,1-0.3c0.3-0.1,0.5-0.3,0.5-0.6
		c0.1-0.4-0.1-0.9-0.3-1.2c-0.6-1-1.6-1.7-2.3-2.6c-0.2-0.2-0.3,0-0.5,0.1c-0.1,0.1-1,0.5-1.3,0.6c-0.6,0.2-1.2,0.3-1.8,0.4
		c-0.7,0-1.4,0-2-0.2c-0.1,0-0.7-0.2-0.7-0.3c0-0.1,0.7,0.1,0.8,0.1c1.2,0.1,2.4-0.2,3.4-0.9c0.2-0.2,1.3-1,1.1-1.2
		c-0.4-0.5-0.9-0.9-1.3-1.4c-0.9-1-1.8-2-2.4-3.2c-0.6-1.3-1.3-2.6-1.6-3.9c-0.3-1.3-0.5-2.7-0.4-4c0.1-1.4,1.3-7.4,1.6-7.9
		c0.6-1.2,1.6-2.2,2.6-3.1c1-0.9,2.1-1.6,3.2-2.2c0.3-0.1,0.6-0.3,0.9-0.4c0.1-0.1,2-0.7,2.3-0.7c1.4-0.1,2.6-0.5,3.9-1
		c2.4-0.9,4.9-1.7,6.8-3.5c0.5-0.4,0.9-0.9,1.3-1.5c0.1-0.1,1-1.3,0.9-1.4c0,0,0.4-0.7,0.4-0.8c0.3-0.6,0.5-1.2,0.8-1.8
		c0.4-1.3,0.6-2.6,0.8-3.9c0.2-1.4,0.9-5.5,0.9-6.2c0-0.7,0.1-1.3,0.1-2c0-1.4-0.1-2.8-0.3-4.2c-0.4-2.8-0.9-5.5-1.5-8.2
		c-0.1-0.4-0.2-0.7-0.3-1.1c-0.1-0.4,0-0.4,0.1-0.1c0.3,0.6,0.5,1.2,0.7,1.7c0.5,1.2,0.9,2.5,1.3,3.8c0.4,1.3,0.7,2.7,1,4
		c0.3,1.4,0.4,2.7,0.6,4.1c0.3,2.8,0.4,5.7-0.5,8.4c1.2-1.3,2.1-2.9,2.5-4.6c0.3-0.9,0.4-1.8,0.5-2.7c0-0.4,0.1-0.9,0.1-1.3
		c0-0.2-0.1-0.3,0.2-0.3c0.1,0,0.2,0,0.3,0c0.2,0,0.5,0,0.7-0.1c1.4-0.1,2.9-0.3,4.3-0.5c0.7-0.1,1.5-0.2,2.2-0.3
		c0.7-0.1,1.4-0.1,2.1-0.2c2.7-0.4,5.3-1.1,7.8-2.2c2.6-1.1,5.1-2.6,7.4-4.1c1.2-0.8,2.4-1.6,3.6-2.5c1.2-0.8,2.4-1.6,3.5-2.5
		c-0.1,0-0.1-0.1-0.2-0.1c0.1,0,0.2,0,0.4,0c0.2-0.2,1.5-1.4,1.9-1.8c-1.8-0.8-3.7-1.6-5.3-2.7c-1.7-1.2-3.2-2.7-4.7-4.2
		c-0.2-0.2-0.4-0.4-0.5-0.6c-0.1-0.1-0.3-0.4,0-0.2c0.4,0.4,0.9,0.7,1.3,1.1c0.8,0.6,1.7,1.3,2.6,1.8c1.7,1.1,3.6,2.1,5.5,3
		c0.6,0.3,3.4,1,3.8,1.1c0.3,0.1,0.8-0.3,1.1-0.4c0.3-0.1,0.6-0.3,0.9-0.5c0.6-0.3,3.7-2.2,4.7-3c1-0.7,6-4.7,5.7-4.3
		c-0.9,1.1-1.8,2.2-2.8,3.1c-1.9,1.9-3.7,4-6,5.4c2.7,0.2,5.4-0.1,8.1-0.6c1.4-0.3,2.7-0.6,4-0.8c0.9-0.7,1.8-1.4,2.8-2.1
		c-0.5,1-1.1,1.9-1.8,2.8c-0.2,0.2-0.4,0.4-0.6,0.7c-0.1,0.3-0.2,0.6-0.3,0.9c-0.2,0.6-0.6,1.2-0.9,1.7c-0.8,1-1.6,2-2.6,2.8
		c-0.5,0.4-1,0.7-1.6,0.7c-0.6,0-1.1-0.1-1.7-0.2c-1.2-0.1-1.7,0.6-2.6,1.3c-0.5,0.4-1.1,0.4-1.7,0.4c-0.7,0-3.4,0.1-4.2,0.2
		c-0.5,0.1-1.4,0.2-1.8,0.6c-0.7,0.5-1.2,1.3-1.4,2.2c-0.5,1.9-0.1,3.9,0,5.8c0,0.8,0,2.3,1.3,2.2c1.3-0.1,2.4-0.7,3.5-1.4
		c0.3-0.2,0.3-0.2,0.1-0.4c-0.1-0.1-0.2-0.2-0.2-0.4c-0.2-0.2-0.3-0.5-0.4-0.8c-0.3-0.5-1-2.8-1.1-3.4c0-0.3,0-0.6,0-0.9
		c0.2-0.1,0.2,0.5,0.2,0.6c0.3,1.2,0.9,2.4,1.6,3.4c0.2,0.3,0.4,0.6,0.7,0.9c0.1,0.2,0.1,0.3,0.3,0.1c0.1-0.1,0.3-0.2,0.4-0.3
		c0.5-0.4,1.1-0.8,1.6-1.2c1.1-0.8,2.3-1.4,3.5-1.8c0.5-0.2,1.3-0.2,1.7-0.7c0.4-0.4,0.7-0.8,1.1-1.2c1-0.9,4.2-3.5,4.8-4
		c0.4-0.3,0.9-0.7,1-1.2c0.2,1,3.3,3.7,4,4.3c0.5,0.4,1.3,0.8,1.8,0.2c0.9-1.1,1.7-2.3,2.5-3.4c-1.2-0.5-2.4-1-3.5-1.8
		c-0.8-0.6-1.4-1.4-1.7-2.4c-0.1-0.2-0.1-0.3-0.1-0.5c0.1-0.1,0.1,0,0.2,0.1c0.1,0.2,0.2,0.5,0.4,0.7c0.3,0.4,0.6,0.8,1,1.1
		c0.8,0.7,1.8,1.1,2.7,1.4c0.5,0.2,1.1,0.3,1.6,0.5c0.2,0.1,0.5-0.5,0.6-0.7c0.2-0.3,2-3.4,2.7-4.6c0.3-0.6,0.8-1.2,0.8-1.9
		c0-0.3-1.2-7.2-1.1-10.1c0.1-1.5,0.2-2.9,0.1-4.4c-0.1-1.4-0.3-2.9-0.4-4.3c-0.1-1.3-0.3-2.8-0.8-4c-0.5-1.3-1.7-1.6-3-1.4
		c-1.3,0.2-2.7,0.6-4,0.9c-1.4,0.3-2.8,0.5-4.2,0.8c-2.7,0.6-5.2,1.6-7.3,3.4c-1,0.9-2.1,1.7-3.1,2.6c-0.5,0.5-1.1,1-1.7,1.4
		c-0.1,0.1-0.6,0.5-0.4,0.1c0.2-0.3,0.3-0.6,0.5-0.8c0.6-1,1.4-2,2.2-2.8c0.1-0.1,0.3-0.2,0.4-0.4c0.1-0.1,0.1-0.2,0.1-0.4
		c0-0.3-3.9-13.2-4.4-14.5c-0.5-1.3-1-2.6-1.3-3.9c-0.2,0.7-1.8,8.1-2.1,8c-0.1,0,0.3-3.5,0.4-3.9c0.2-1.3,0.3-2.6,0.5-4
		c0.4-2.6,1.2-5.2,2-7.7c0.2-0.6,0.5-1.3,0.7-1.9c0.1-0.3,0.3-0.6,0.3-0.9c0-0.3,0.1-0.6,0.2-0.9c0.4-1.3,0.9-2.5,1.3-3.7
		c0.4-1.3,0.8-2.6,0.8-4c0-0.7-0.1-1.4-0.3-2.1c-0.1-0.3-0.2-0.6-0.3-1c-0.1-0.2-0.1-0.3-0.2-0.5c0.1-0.1,0.1,0,0.2,0.1
		c0.8,1.1,1.3,2.5,1.4,3.9c0.1,1.4-0.2,2.8-0.6,4.1c-0.2,0.7-0.4,1.4-0.6,2.1c-0.1,0.3-0.2,0.6-0.3,1c-0.1,0.3-0.3,0.7-0.1,0.9
		c0.7,1,1.5,1.9,2.4,2.7c1.8,1.7,3.8,2.8,6.1,3.7c2.6,1.1,5.5,1.7,8.2,2.3c1.4,0.3,2.8,0.6,4.1,1.1c1.3,0.4,1.6-1.1,1.9-2
		c0.4-1.2,1.1-2.4,1.8-3.5c0.7-1.1,1.3-2.3,1.9-3.4c1.3-2.4,2.1-4.9,2.5-7.6c0.2-1.4,0.2-2.9,0.1-4.3c0-0.8,0-1.5,0.1-2.2
		c0.1-0.5,0.2-1,0.2-1.6c0-0.6,0-1.1-0.2-1.7c-0.2-0.5-0.5-1-0.8-1.4c-0.7-1-1.2-2.1-1.8-3.2c-0.4-0.7-0.7-1.3-1.1-2
		c-0.5-0.5-1-0.3-1.6-0.3c-0.6,0-1.2,0-1.8-0.3c-0.4-0.2-0.8-0.5-1.3-0.5c-0.5,0-1.3,0.6-1.5,1c-0.3,0.5-0.6,1-0.9,1.5
		c-0.3,0.6-0.7,1.2-0.8,1.9c0,0.3-0.1,0.7,0.1,0.9c0.2,0.2,0.5,0.4,0.7,0.5c0.2-0.7,0.7-1.3,1.2-1.8c0.3-0.2,0.6-0.4,0.9-0.5
		c0.1,0.1-0.5,0.5-0.5,0.6c-0.5,0.6-0.9,1.3-1.2,2c-0.1,0.3-0.3,0.8-0.2,1.1c0.2,0.3,0.4,0.6,0.8,0.7c0.2-0.7,0.6-1.3,1.1-1.9
		c0.3-0.3,0.6-0.6,1-0.8c0.3-0.2,0.2,0,0.1,0.2c-0.7,1-2.2,2.5-1.2,3.8c0.1,0.2,0.6,0.6,0.7,0.3c0.1-0.3,0.2-0.7,0.3-1
		c0.3-0.6,0.6-1.2,1.1-1.7c0.1-0.1,0.2-0.2,0.4-0.4c0.2,0-0.1,0.3-0.1,0.3c-0.2,0.3-0.4,0.6-0.5,0.9c-0.3,0.6-0.6,1.3-0.7,2
		c0.7-0.1,1.4,0,2.1,0.1c0.4,0,1.2,0.2,1.6-0.1c0.4-0.3-0.2-1-0.5-1.1c-0.4-0.3-1.1-0.3-1.6-0.3c-0.6,0-0.1-0.2,0.2-0.3
		c0.6-0.2,1.1-0.2,1.7,0c0.7,0.3,1.5,1.3,0.9,2.1c-0.4,0.5-1,0.6-1.6,0.6c-0.3,0.5-0.6,1.1-0.9,1.6c-0.6,1-1.4,1.9-2.2,2.8
		c-0.8,1-1.5,2-2,3.2c-0.2,0.5-0.5,0.9-0.6,1.5c-0.1,0.6-0.3,1.2-0.6,1.8c-0.1,0.3-0.3,0.5-0.3,0.8c0.1,0.3,0.2,0.5,0.3,0.8
		c0.2,0.6,0.5,1.2,0.6,1.8c0.1,0.7,0.2,1.3,0.2,2c0,0.1,0.1,0.7-0.1,0.6c-0.1-0.2-0.2-0.3-0.2-0.5c-0.4-1.4-0.9-2.7-1.4-4
		c-0.4-1.1-1.2-2.3-1.9-3.2c-1.4-1.9-3.4-3-5.6-3.6c-2.4-0.6-4.7-0.1-7.2-0.1c1.8-1,3.9-1.1,5.9-0.8c-0.5-1.1-0.8-2.2-1.5-3.2
		c-0.6-0.8-1.4-1.5-2.2-2.1c-0.9-0.6-1.9-1.1-3-1.5c-1-0.3-2-0.5-2.9-1c-0.5-0.3-1-0.6-1.4-0.9c-0.4-0.4-0.5-1-0.4-1.5
		c0-0.2,0-0.5,0-0.7c0-0.3,0-0.3-0.3-0.4c-0.5-0.2-1-0.4-1.5-0.6c-0.5-0.1-1.1-0.2-1.6-0.2c-0.3,0-0.7,0-1,0.1
		c-0.4,0.1,0-0.1,0.1-0.2c1.1-0.4,2.2-0.4,3.3,0c-0.5-0.6-0.9-1.3-1.1-2.1c-0.1-0.3-0.2-0.9,0.1-0.4c0.2,0.3,0.4,0.6,0.6,0.9
		c0.9,1.2,2.2,2.4,3.4,3.2c0.7,0.5,1.4,1,2.3,1.1c0.4,0,0.7,0.1,1-0.2c0.2-0.2,0.3-0.5,0.3-0.8c0-0.3-0.1-0.6,0.1-0.9
		c0.2-0.3,0.6-0.1,0.9-0.2c0.8-0.2,0.4-1.2-0.1-1.4c0.3,0.1,0.8,0.2,1.1,0.1c0.3-0.1,0.3-0.4,0.3-0.7c0.1-0.2,0.3-0.5,0.5-0.6
		c0.2-0.1,0.8,0.2,1,0.1c0.4,0,0.7-0.2,0.7-0.6c0.1-0.5,0-0.9,0-1.4c0-0.4-0.2-1.9-0.1-2.3c0-0.3,0.1-0.8,0.5-0.9
		c0.4-0.1,0.7-0.2,1.1-0.3c0.4-0.1,0.5-0.6,0.5-1c0-0.5,0.2-2.1,0.2-2.4c0-0.3-0.2-0.7,0-0.9c-1.2-0.2-2.4-0.7-3.3-1.5
		c-0.2-0.2-0.5-0.4-0.7-0.6c-0.1-0.1-0.5-0.7-0.1-0.4c0.6,0.3,1.2,0.6,1.9,0.9c1.1,0.4,2.4,0.5,3.3,1.4c0.8,0.9,0.7,2.2,0.3,3.2
		c1-1.1,1.7-2.8,0.5-4.1c0.3,0,0.5-1.1,0.6-1.3c0.1-0.5,0.1-1,0-1.5c-0.1-0.5-0.2-1.1-0.5-1.5c-0.3-0.4-2.6-2.8-3.5-3.6
		c-0.5-0.3-2.3-1.6-2.8-1.8c-2.4-1.3-5.2-1.9-7.9-1.2c-2.4,0.6-4.3,1.8-5.9,3.7c-0.7,0.9-1.3,1.9-2,2.8c-0.7,1.2-1,2.6-1.1,3.9
		c-0.1,1.4,0.1,2.7,0.4,4c0.3,1.3,0.6,2.7,0.5,4.1c0.5-0.6,0.8-1.3,1.2-2c0.2-0.4,0.7-1.8,0.9-1.7c-0.1,2.3-1.1,5.1-3.2,6.2
		c-0.5,0.3-3.2,0.8-3.5,0.9c-1.3,0.3-2.7,0.2-4,0.4c-2.1,0.4-4.3,0.9-6.1,2.3c-0.4,0.3-0.8,0.7-1.2,1.2c-0.4,0.5-0.7,1.1-1,1.5
		c-0.8,1-1.3,2.2-1.9,3.4c1.2-0.5,2.5-1,3.8-1.2c0.7-0.1,1.3-0.1,2,0.1c0.1,0,0.8,0.2,0.3,0.2c-0.3,0-0.6,0.1-1,0.1
		c-2.4,0.4-4.6,1.3-6.5,2.8c-0.9,0.8-1.8,1.7-2.5,2.7c-0.6,0.8-1.3,1.6-1.7,2.5c-0.6,1.2-1.3,6.3-1.1,7.7c0.3,2.9,0.3,5.8,0.7,8.6
		c0.2,1.4,0.5,2.8,0.8,4.1c0.3,1.4,0.4,2.9,0.6,4.3c0.2,1.4-0.2,2.7-0.4,4.1c0,0.7-0.1,1.4,0,2.1c0.1,0.7,0.2,1.3,0.3,2
		c0.4,1.8,0.7,4.7,2.9,5.1c-0.3-1-1.2-4.3-1.3-5c0.1,0,0.3,0,0.4,0.1c0.1,0.1,0.2,0.4,0.3,0.6c0.2,0.5,1.1,3.9,1.7,5
		c0.3,0.6,0.5,1.2,1,1.6c0.4,0.3,1,0.6,1.3,0.2c0.4-0.5,0.2-1.1,0.1-1.6c-0.1-0.5-0.2-1-0.1-1.5c0.3,0.7,0.5,1.4,0.6,2.1
		c0.1,0.6,0.3,1.5,0,2c-0.4,0.6-1.6-0.1-2-0.4c-0.7-0.6-1.2-1.4-1.5-2.2c-0.8,0.6-1.7-0.5-2.1-1.1c-0.5-0.7-0.8-1.5-1.1-2.4
		c-3,2.8-6.9,3.6-10.8,3.9c-1.1,0.1-2.2,0.1-3.3,0.1c-1.1,0-2.3,0.2-3.4,0.1c-2.4-0.1-4.8-0.2-7.2,0c-4.9,0.4-10.1,1.7-13.8,5.1
		c-0.9,0.9-1.7,1.8-2.3,2.9c-1.3,0.4-2.6,1-3.8,1.4c-1.2,0.4-2.3,1.4-3.3,2.2c-0.9,0.9-1.7,1.8-2.6,2.8c-1.7,2.1-3,4.6-4.1,7.1
		c-1.2,2.6-2.1,5.3-2.7,8.1c-0.6,2.8-1,5.6-1.3,8.4c-0.2,1.4-0.3,2.9-0.5,4.3C5.9,121.5,5.5,122.8,5.3,124.2
		C4.6,129.4,5.5,123,5.3,124.2z M110.1,83.3C110.1,83.3,110,83.3,110.1,83.3c2.1-1,4.4-2.2,5.8-4.2c0.1-0.1,0.3-0.6,0.4-0.5
		c0.1,0,0,0.7,0,0.9c0,0.7,0.1,1.4,0.2,2c0.2,1.3,0.5,2.7,0.7,4c0.1,0.3,0.1,0.7,0.1,1c0,0.2-0.1,0.6,0,0.8c0.1,0.3,0.2,0.5,0.3,0.8
		c0,0,0.1,0.2,0.1,0.2c-0.1,0.2-0.4-0.3-0.4-0.4c-0.4-0.5-0.8-0.9-1.2-1.3c-0.9-0.8-1.8-1.5-2.9-2c-0.5-0.3-1.1-0.5-1.7-0.7
		C111,83.7,110.5,83.6,110.1,83.3C110.1,83.3,110.2,83.4,110.1,83.3z M72.3,71.8c-0.4-1.1-0.1-2.4,0.6-3.3c0.8-0.9,3.7-1,3.8-1
		c0.3,0.1,0.6,0.1,0.9,0.2c0.5,0.1,1.4,0.4,1.9,0.1c0.9-0.6-1.4-2.2-1.8-2.4c-1.1-0.6-2.3-1-3.5-1.4c-0.7-0.2-1.3-0.5-2-0.7
		c-0.6-0.2-0.8-0.5-1.1-1c-1.1-2.1-0.3-4.7,0.1-7c-0.3,0.5-0.2-0.1-0.1-0.3c0.1-0.3,0.2-0.6,0.3-0.9c0.3-1.2,0.7-2.3,1.1-3.5
		c0.3-1.2,0.6-2.4,0.5-3.6c0-0.6-0.2-1.2-0.4-1.7c-0.2-0.6-0.1-0.8,0.5-1c2.2-0.8,4.2-1.7,5.8-3.3c0.8-0.8,1.5-1.7,2.2-2.7
		c0.3-0.5,0.6-1,0.8-1.5c0.2-0.3,0.3-0.5,0.3-0.9c0-0.1,0.1-0.5,0.2-0.2c0.2-0.4,0.3-0.4,0.2,0.1c0,0.3-0.1,0.6-0.1,0.8
		C83.1,38,84,39,85,39.9c1,0.9,2,1.7,3.2,2.3c1.1,0.6,2.3,1.1,3.6,1.3c1,0.2,2.1,0.2,3.1,0.2c0.2,0.2-1.5,0.5-1.7,0.5
		c-0.7,0-1.3,0-1.9-0.2c-1.3-0.3-2.5-0.8-3.6-1.4c-2.1-1.1-4.7-2.6-5.2-5.1c-0.4,1.2-1.2,2.3-2.1,3.3c-0.9,1-1.8,2-2.9,2.7
		c-1,0.6-2.3,1.1-2.9,2.2c-0.2,0.4-0.3,1-0.4,1.5c-0.1,0.6-0.3,1.2-0.4,1.8c-0.1,0.3,0.1,0.6,0.2,0.9c0.1,0.3,0.1,0.6,0.2,1
		c0.1,0.6,0.2,1.3,0.4,1.9c0.3,1.2,0.8,2.3,1,3.5c0.2,1.3-0.5,4.9-0.6,5.4c-0.1,0.5-0.1,1.1-0.4,1.5c1.6,0.8,3.3,1.1,4.8,2
		c0.6,0.4,1.2,0.9,1.4,1.5c0.2,0.6,0.2,1.5-0.4,1.9c-0.7,0.5-1.7-0.1-2.4-0.3c-0.8-0.1-1.7-0.2-2.6-0.1c-0.8,0.1-1.6,0.5-2,1.1
		c-0.3,0.4-0.5,0.8-0.6,1.2c-0.1,0.2-0.1,0.5-0.1,0.8C72.4,71.6,72.5,71.8,72.3,71.8C71.9,70.7,72.3,71.8,72.3,71.8z"/>
</g>
</svg>
